<svg width="15" height="15" viewBox="0 0 15 15" fill="none" xmlns="http://www.w3.org/2000/svg">
<path d="M13.727 0.673951C12.8283 -0.22465 11.3713 -0.22465 10.4726 0.673951L1.3496 9.79618C1.28708 9.8587 1.24194 9.93619 1.21837 10.0213L0.0186601 14.3521C-0.0306784 14.5297 0.0194591 14.7198 0.149697 14.8502C0.280134 14.9805 0.470298 15.0306 0.647876 14.9815L4.97908 13.7817C5.06418 13.7581 5.14168 13.713 5.2042 13.6504L14.327 4.52801C15.2243 3.62881 15.2243 2.17315 14.327 1.27395L13.727 0.673951ZM2.46381 10.1285L9.93032 2.6625L12.3383 5.07028L4.87162 12.5363L2.46381 10.1285ZM1.98281 11.0936L3.90662 13.0175L1.24553 13.7547L1.98281 11.0936ZM13.6039 3.80497L13.0616 4.34725L10.6534 1.93926L11.1959 1.39699C11.6951 0.897852 12.5045 0.897852 13.0037 1.39699L13.6039 1.99699C14.1023 2.49672 14.1023 3.30544 13.6039 3.80497Z" fill="#6F6F6F"/>
</svg>
