<svg width="15" height="15" viewBox="0 0 15 15" fill="none" xmlns="http://www.w3.org/2000/svg">
<g clip-path="url(#clip0_277_75)">
<path d="M13.7884 2.13066C13.003 1.34521 11.9631 0.915912 10.8533 0.915912C9.74349 0.915912 8.70046 1.34839 7.915 2.13384L7.50479 2.54406L7.08821 2.12748C6.30275 1.34203 5.25654 0.906372 4.14673 0.906372C3.04009 0.906372 1.99706 1.33885 1.21478 2.12112C0.42933 2.90658 -0.00314731 3.94961 3.26715e-05 5.05943C3.26715e-05 6.16924 0.43569 7.20909 1.22115 7.99455L7.19315 13.9665C7.27583 14.0492 7.38713 14.0937 7.49525 14.0937C7.60336 14.0937 7.71466 14.0524 7.79734 13.9697L13.7821 8.00727C14.5675 7.22181 15 6.17878 15 5.06897C15.0032 3.95915 14.5739 2.91612 13.7884 2.13066Z" fill="#EB5757"/>
</g>
<defs>
<clipPath id="clip0_277_75">
<rect width="15" height="15" fill="white"/>
</clipPath>
</defs>
</svg>
