<svg width="25" height="25" viewBox="0 0 25 25" fill="none" xmlns="http://www.w3.org/2000/svg">
<g clip-path="url(#clip0)">
<path d="M24.0234 11.5234H7.04404C6.50468 11.5234 6.06747 11.9606 6.06747 12.5C6.06747 13.0394 6.50468 13.4766 7.04404 13.4766H24.0234C24.5628 13.4766 25 13.0394 25 12.5C25 11.9606 24.5628 11.5234 24.0234 11.5234Z" fill="#5458F7"/>
<path d="M24.0234 4.19922H7.04404C6.50468 4.19922 6.06747 4.63643 6.06747 5.17578C6.06747 5.71514 6.50468 6.15234 7.04404 6.15234H24.0234C24.5628 6.15234 25 5.71514 25 5.17578C25 4.63643 24.5628 4.19922 24.0234 4.19922Z" fill="#5458F7"/>
<path d="M24.0234 18.8477H7.04404C6.50468 18.8477 6.06747 19.2849 6.06747 19.8242C6.06747 20.3636 6.50468 20.8008 7.04404 20.8008H24.0234C24.5628 20.8008 25 20.3636 25 19.8242C25 19.2849 24.5628 18.8477 24.0234 18.8477Z" fill="#5458F7"/>
<path d="M1.31836 6.49414C2.04647 6.49414 2.63672 5.90389 2.63672 5.17578C2.63672 4.44767 2.04647 3.85742 1.31836 3.85742C0.59025 3.85742 0 4.44767 0 5.17578C0 5.90389 0.59025 6.49414 1.31836 6.49414Z" fill="#5458F7"/>
<path d="M1.31836 13.8184C2.04647 13.8184 2.63672 13.2281 2.63672 12.5C2.63672 11.7719 2.04647 11.1816 1.31836 11.1816C0.59025 11.1816 0 11.7719 0 12.5C0 13.2281 0.59025 13.8184 1.31836 13.8184Z" fill="#5458F7"/>
<path d="M1.31836 21.1426C2.04647 21.1426 2.63672 20.5523 2.63672 19.8242C2.63672 19.0961 2.04647 18.5059 1.31836 18.5059C0.59025 18.5059 0 19.0961 0 19.8242C0 20.5523 0.59025 21.1426 1.31836 21.1426Z" fill="#5458F7"/>
</g>
<defs>
<clipPath id="clip0">
<rect width="25" height="25" fill="white"/>
</clipPath>
</defs>
</svg>
