<svg width="21" height="25" viewBox="0 0 21 25" fill="none" xmlns="http://www.w3.org/2000/svg">
<path d="M18.0012 16.2437V10.3529C18.0012 7.08801 15.8013 4.32723 12.8058 3.47513V2.3059C12.8058 1.03442 11.7714 0 10.4999 0C9.22846 0 8.19404 1.03442 8.19404 2.3059V3.47518C5.19864 4.32723 2.9986 7.08801 2.9986 10.3529V16.2437C1.6614 16.3927 0.618046 17.5293 0.618046 18.9055V19.1172C0.618046 20.5944 1.8198 21.7962 3.29694 21.7962H7.54932V22.0493C7.54932 23.6763 8.87299 25 10.5 25C12.127 25 13.4507 23.6763 13.4507 22.0493V21.7962H17.703C19.1802 21.7962 20.3819 20.5944 20.3819 19.1172V18.9055C20.3818 17.5293 19.3384 16.3926 18.0012 16.2437ZM9.71108 2.3059C9.71108 1.87089 10.065 1.51699 10.5 1.51699C10.935 1.51699 11.2889 1.87089 11.2889 2.3059V3.21757C11.1444 3.20883 10.9988 3.2038 10.8521 3.2038H10.1478C10.0011 3.2038 9.85556 3.20878 9.71108 3.21752V2.3059ZM4.51559 10.3529C4.51559 7.24733 7.04214 4.72078 10.1477 4.72078H10.8521C13.9577 4.72078 16.4842 7.24733 16.4842 10.3529V16.2267H4.51559V10.3529ZM10.4999 23.483C9.70942 23.483 9.06625 22.8398 9.06625 22.0493V21.7961H11.9336V22.0493H11.9336C11.9336 22.8399 11.2905 23.483 10.4999 23.483ZM18.8649 19.1172H18.8648C18.8648 19.7578 18.3436 20.2791 17.7029 20.2791H3.29694C2.65627 20.2791 2.13503 19.7578 2.13503 19.1172V18.9055C2.13503 18.2648 2.65627 17.7436 3.29694 17.7436H3.75714H17.2427H17.7029C18.3436 17.7436 18.8649 18.2648 18.8649 18.9055V19.1172Z" fill="#5458F7"/>
</svg>
