<svg width="25" height="25" viewBox="0 0 25 25" fill="none" xmlns="http://www.w3.org/2000/svg">
<g clip-path="url(#clip0_366_2)">
<path d="M22.9807 2.32095C21.6716 0.831927 19.9385 0.0180854 18.0888 0.0180854C16.2391 0.0180854 14.5008 0.837955 13.1917 2.32698L12.508 3.10465L11.8137 2.31493C10.5046 0.825898 8.76089 0 6.9112 0C5.06681 0 3.32842 0.81987 2.02463 2.30287C0.71554 3.7919 -0.00525569 5.76923 4.42799e-05 7.87316C4.42799e-05 9.97709 0.72614 11.9484 2.03523 13.4374L11.9886 24.7589C12.1264 24.9156 12.3119 25 12.4921 25C12.6723 25 12.8578 24.9216 12.9956 24.7649L22.9701 13.4615C24.2792 11.9725 25 9.99518 25 7.89125C25.0053 5.78732 24.2898 3.80998 22.9807 2.32095Z" fill="#80FF61"/>
</g>
<defs>
<clipPath id="clip0_366_2">
<rect width="25" height="25" fill="white"/>
</clipPath>
</defs>
</svg>
