<svg width="25" height="25" viewBox="0 0 25 25" fill="none" xmlns="http://www.w3.org/2000/svg">
<path d="M20.8191 8.11578L19.5961 5.27809L16.6382 3.97276L19.5961 2.6958L20.8191 0L22.0421 2.6958L25 3.97276L22.0421 5.27809L20.8191 8.11578ZM20.8191 25L19.5961 22.2758L16.6382 20.9989L19.5961 19.7219L20.8191 16.8558L22.0421 19.7219L25 20.9989L22.0421 22.2758L20.8191 25ZM8.33333 20.63L5.71672 15.0397L0 12.4858L5.71672 9.9319L8.33333 4.37003L10.9784 9.9319L16.6667 12.4858L10.9784 15.0397L8.33333 20.63ZM8.33333 16.4302L9.69852 13.706L12.4858 12.4858L9.69852 11.2656L8.33333 8.54143L6.99659 11.2656L4.18089 12.4858L6.99659 13.706L8.33333 16.4302Z" fill="#5458F7"/>
</svg>
