<svg width="25" height="25" viewBox="0 0 25 25" fill="none" xmlns="http://www.w3.org/2000/svg">
<path d="M10.8333 3.33325C9.84843 3.33325 8.87316 3.52725 7.96322 3.90416C7.05328 4.28107 6.22648 4.83351 5.53004 5.52995C4.8336 6.22639 4.28116 7.05318 3.90425 7.96313C3.52734 8.87307 3.33334 9.84834 3.33334 10.8333C3.33334 11.8182 3.52734 12.7934 3.90425 13.7034C4.28116 14.6133 4.8336 15.4401 5.53004 16.1366C6.22648 16.833 7.05328 17.3854 7.96322 17.7623C8.87316 18.1393 9.84843 18.3333 10.8333 18.3333C11.8183 18.3333 12.7935 18.1393 13.7035 17.7623C14.6134 17.3854 15.4402 16.833 16.1366 16.1366C16.8331 15.4401 17.3855 14.6133 17.7624 13.7034C18.1394 12.7934 18.3333 11.8182 18.3333 10.8333C18.3333 9.84834 18.1394 8.87307 17.7624 7.96313C17.3855 7.05318 16.8331 6.22639 16.1366 5.52995C15.4402 4.83351 14.6134 4.28107 13.7035 3.90416C12.7935 3.52725 11.8183 3.33325 10.8333 3.33325V3.33325Z" stroke="#9A9A9A" stroke-width="2" stroke-miterlimit="10"/>
<path d="M21.6667 21.6667L16.1975 16.1975" stroke="#9A9A9A" stroke-width="2" stroke-miterlimit="10" stroke-linecap="round"/>
</svg>
